<?xml version="1.0" encoding="UTF-8"?>
<svg width="1200pt" height="1200pt" version="1.1" viewBox="0 0 1200 1200" xmlns="http://www.w3.org/2000/svg">
 <path d="m187.5 450c69.895 0 128.62 47.805 145.27 112.5h121.95c16.648-64.695 75.379-112.5 145.27-112.5s128.62 47.805 145.27 112.5h121.95c16.648-64.695 75.379-112.5 145.27-112.5 82.844 0 150 67.156 150 150s-67.156 150-150 150c-69.895 0-128.62-47.805-145.27-112.5h-121.95c-16.648 64.695-75.379 112.5-145.27 112.5s-128.62-47.805-145.27-112.5h-121.95c-16.648 64.695-75.379 112.5-145.27 112.5-82.844 0-150-67.156-150-150s67.156-150 150-150zm75 150c0-41.422-33.578-75-75-75s-75 33.578-75 75 33.578 75 75 75 75-33.578 75-75zm412.5 0c0-41.422-33.578-75-75-75s-75 33.578-75 75 33.578 75 75 75 75-33.578 75-75zm337.5-75c41.422 0 75 33.578 75 75s-33.578 75-75 75-75-33.578-75-75 33.578-75 75-75z" fill="#bf195d" fill-rule="evenodd"/>
</svg>
