<?xml version="1.0" encoding="UTF-8"?>
<svg width="1200pt" height="1200pt" version="1.1" viewBox="0 0 1200 1200" xmlns="http://www.w3.org/2000/svg">
 <path d="m287.5 400v400c0 20.699-16.801 37.5-37.5 37.5s-37.5-16.801-37.5-37.5v-400c0-20.699 16.801-37.5 37.5-37.5s37.5 16.801 37.5 37.5zm750 100v200c0 75.852-61.648 137.5-137.5 137.5h-50c-75.852 0-137.5-61.648-137.5-137.5v-200c0-75.852 61.648-137.5 137.5-137.5h50c75.852 0 137.5 61.648 137.5 137.5zm-75 0c0-34.449-28.051-62.5-62.5-62.5h-50c-34.449 0-62.5 28.051-62.5 62.5v200c0 34.449 28.051 62.5 62.5 62.5h50c34.449 0 62.5-28.051 62.5-62.5zm-462.5-62.5h100c20.699 0 37.5-16.801 37.5-37.5s-16.801-37.5-37.5-37.5h-100c-75.852 0-137.5 61.648-137.5 137.5s61.648 137.5 137.5 137.5c34.449 0 62.5 28.051 62.5 62.5s-28.051 62.5-62.5 62.5h-100c-20.699 0-37.5 16.801-37.5 37.5s16.801 37.5 37.5 37.5h100c75.852 0 137.5-61.648 137.5-137.5s-61.648-137.5-137.5-137.5c-34.449 0-62.5-28.051-62.5-62.5s28.051-62.5 62.5-62.5z" fill="#be185c"/>
</svg>
