<?xml version="1.0" encoding="UTF-8"?>
<svg width="1200pt" height="1200pt" version="1.1" viewBox="0 0 1200 1200" xmlns="http://www.w3.org/2000/svg">
 <path d="m796.8 725.95v-251.91c0-13.035 10.578-23.617 23.617-23.617 13.035 0 23.617 10.578 23.617 23.617v251.91c0 13.035-10.578 23.617-23.617 23.617-13.035 0-23.617-10.578-23.617-23.617zm-472.32-62.977v-125.95c0-47.766 38.824-86.594 86.594-86.594h31.488c47.766 0 86.594 38.824 86.594 86.594v125.95c0 47.766-38.824 86.594-86.594 86.594h-31.488c-47.766 0-86.594-38.824-86.594-86.594zm47.23 0c0 21.695 17.664 39.359 39.359 39.359h31.488c21.695 0 39.359-17.664 39.359-39.359v-125.95c0-21.695-17.664-39.359-39.359-39.359h-31.488c-21.695 0-39.359 17.664-39.359 39.359zm291.27 39.359h-62.977c-13.035 0-23.617 10.578-23.617 23.617 0 13.035 10.578 23.617 23.617 23.617h62.977c47.766 0 86.594-38.824 86.594-86.594 0-47.766-38.824-86.594-86.594-86.594-21.695 0-39.359-17.664-39.359-39.359 0-21.695 17.664-39.359 39.359-39.359h62.977c13.035 0 23.617-10.578 23.617-23.617 0-13.035-10.578-23.617-23.617-23.617h-62.977c-47.766 0-86.594 38.824-86.594 86.594 0 47.766 38.824 86.594 86.594 86.594 21.695 0 39.359 17.664 39.359 39.359 0 21.695-17.664 39.359-39.359 39.359z" fill="#19bf79"/>
</svg>
